<svg xmlns="http://www.w3.org/2000/svg" viewBox="0 0 100 44">
  <path fill="#145f50" d="M55.297 2.85c11.044 0 18.996 3.682 22.432 6.995-3.34 4.737-7.24 9.89-23.88 9.89h-.96c-11.68 0-21.57-6.552-22.09-6.896-.2.07-3.76 1.37-8.49 10.94-.2-5.43 3.36-10.85 6.03-12.62-5.48-4.08-7.19-6.38-7.12-11.22.19.41 3.92 8.39 8.37 10.3 1.67-1.108 10.92-6.75 23.24-7.36.86-.03 1.67-.05 2.45-.05zm-.785 14.112c15.486 0 21.204-6.675 21.5-7.043-.222-.23-4.59-4.62-19.02-4.96-.418 0-.836-.03-1.253-.03-12.72 0-23.15 6.38-23.69 6.7.37.24 7.26 4.88 21.74 5.3.24 0 .46.02.71.02zm-42.8 14.435c-.32-.908-.514-1.546-.882-2.037-.418-.613-.933-.81-2.283-.81h-1.35c-.957 0-.98 0-.98.86v10.97c0 2.06.17 2.257 2.355 2.43v.81H.645v-.81c1.84-.173 2.037-.37 2.037-2.43v-9.35c0-2.332-.197-2.53-2.037-2.676v-.81h11.78c.024.516.098 2.528.245 3.755l-.957.09zm8.002 4.59c.344.122.76.22 1.3.22.786 0 2.897-.564 2.897-3.95 0-2.92-1.59-3.805-3.04-3.805-.46 0-.71.098-.88.22-.22.124-.27.394-.27.81v6.505zm1.423-8.443c2.136 0 3.51.295 4.565.933 1.252.76 1.988 2.012 1.988 3.68 0 3.265-2.503 4.81-5.4 5.13-.392.05-.662.05-.98.05l-1.596-.393v3.534c0 2.037.172 2.233 2.33 2.405v.736h-7.852v-.74c1.84-.17 2.037-.37 2.037-2.41V30.8c0-2.06-.2-2.257-1.92-2.43v-.833h6.82zm18.21 16.076v-.81c1.817-.173 2.013-.393 2.013-2.602v-5.546c0-.81 0-2.062.098-4.713h-.073l-5.84 12.36c-.198.39-.198.71-.198 1v.29h-5.94v-.84c1.94-.15 2.136-.37 2.136-2.628V31c0-2.233-.22-2.48-2.16-2.625v-.836h7.658v.83c-1.81.14-2.03.36-2.03 2.6v4.69c0 1.08 0 2.5-.15 5.3h.05l5.89-12.32c.17-.32.22-.57.22-.79v-.32h5.92v.83c-1.89.14-2.13.34-2.13 2.45v9.4c0 2.21.2 2.4 2.11 2.57v.81h-7.56zm26.85-15.24c-1.89.146-2.135.293-2.135 2.33v9.744c0 1.987.27 2.16 2.086 2.355v.81H58.44v-.81c1.867-.18 2.137-.37 2.137-2.34v-4.76h-6.21v4.76c0 2.01.246 2.16 2.037 2.33v.81h-7.657v-.81c1.84-.17 2.086-.34 2.086-2.33v-9.76c0-2.04-.245-2.19-2.184-2.33v-.84h7.68v.83c-1.72.14-1.97.29-1.97 2.33v3.75h6.21V30.7c0-2.04-.27-2.186-2.04-2.33v-.84h7.65v.837zm8.688 3.434h-.098c-.712 1.84-1.252 3.633-1.915 5.424h3.853l-1.84-5.424zm2.037 11.805v-.81c1.472-.2 1.62-.5 1.153-1.72-.245-.76-.564-1.75-.883-2.58h-4.737c-.22.61-.515 1.44-.834 2.43-.41 1.32-.29 1.62 1.55 1.86v.81h-5.72v-.81c1.57-.18 1.99-.44 2.75-2.33l5.18-12.99 1.3-.27c1.65 4.34 3.12 8.61 4.81 12.91.86 2.23 1.18 2.5 2.7 2.65v.83h-7.27zm22.898-3.98c-.344 1.1-.884 2.84-1.3 3.7-.688.17-2.75.58-4.443.58-6.48 0-8.958-4.2-8.958-8.1 0-5.08 3.75-8.62 9.64-8.62 1.72 0 3.41.37 4.17.513.19 1.375.32 2.504.46 3.854l-.93.2c-.86-2.725-2.43-3.56-4.27-3.56-3.12 0-5.08 3.363-5.08 7.093 0 4.49 2.23 7.61 5.22 7.61 1.96 0 3.33-1.35 4.51-3.584l.96.292z" class="fil1" clip-rule="evenodd" image-rendering="optimizeQuality" shape-rendering="geometricPrecision" text-rendering="geometricPrecision"/>
</svg>